{
  "accessors": [
    {
      "bufferView": 3,
      "componentType": 5126,
      "count": 7616,
      "max": [
        0.645190417766571,
        2.3342857360839844,
        0.5141953229904175
      ],
      "min": [
        -0.7477651238441467,
        0.36140161752700806,
        -0.5141953229904175
      ],
      "type": "VEC3"
    },
    {
      "bufferView": 3,
      "byteOffset": 91392,
      "componentType": 5126,
      "count": 7616,
      "max": [
        1.0,
        1.0,
        0.999826192855835
      ],
      "min": [
        -1.0,
        -1.0,
        -0.9987810850143433
      ],
      "type": "VEC3"
    },
    {
      "bufferView": 2,
      "componentType": 5126,
      "count": 7616,
      "max": [
        1.0,
        0.99609375
      ],
      "min": [
        0.004019800573587418,
        0.0037528981920331717
      ],
      "type": "VEC2"
    },
    {
      "bufferView": 1,
      "componentType": 5125,
      "count": 11226,
      "type": "SCALAR"
    },
    {
      "bufferView": 5,
      "componentType": 5126,
      "count": 14,
      "max": [
        1.0,
        0.8872848749160767,
        0.8828099370002747,
        0.0,
        1.0000001192092896,
        1.0000001192092896,
        0.0,
        0.0,
        0.6315003633499146,
        0.9383724927902222,
        1.0000001192092896,
        0.0,
        1.1804862022399902,
        1.1804863214492798,
        1.978224515914917,
        1.0
      ],
      "min": [
        -0.7753757238388062,
        -0.8872849345207214,
        -0.8828099370002747,
        0.0,
        -1.0000001192092896,
        -1.0000001192092896,
        -0.95648592710495,
        0.0,
        -0.177156463265419,
        -1.1920930376163597e-07,
        -1.0000001192092896,
        0.0,
        -1.1804862022399902,
        -1.8355318307876587,
        0.0,
        1.0
      ],
      "type": "MAT4"
    },
    {
      "bufferView": 0,
      "componentType": 5123,
      "count": 7616,
      "type": "VEC4"
    },
    {
      "bufferView": 4,
      "componentType": 5126,
      "count": 7616,
      "max": [
        1.0,
        0.5,
        0.18286803364753723,
        0.0
      ],
      "min": [
        0.5000000596046448,
        0.0,
        0.0,
        0.0
      ],
      "type": "VEC4"
    }
  ],
  "asset": {
    "extras": {
      "author": "TwiIight (https://sketchfab.com/TwiIight3D)",
      "license": "CC-BY-NC-4.0 (http://creativecommons.org/licenses/by-nc/4.0/)",
      "source": "https://sketchfab.com/3d-models/nanashi-mumei-hololive-en-council-979eb07e593e4ab298112b43a9f6a475",
      "title": "Nanashi Mumei - Hololive EN Council"
    },
    "generator": "Sketchfab-12.29.0",
    "version": "2.0"
  },
  "bufferViews": [
    {
      "buffer": 0,
      "byteLength": 60928,
      "byteStride": 8,
      "name": "shortBufferViews",
      "target": 34962
    },
    {
      "buffer": 0,
      "byteLength": 44904,
      "byteOffset": 60928,
      "name": "floatBufferViews",
      "target": 34963
    },
    {
      "buffer": 0,
      "byteLength": 60928,
      "byteOffset": 105832,
      "byteStride": 8,
      "name": "floatBufferViews",
      "target": 34962
    },
    {
      "buffer": 0,
      "byteLength": 182784,
      "byteOffset": 166760,
      "byteStride": 12,
      "name": "floatBufferViews",
      "target": 34962
    },
    {
      "buffer": 0,
      "byteLength": 121856,
      "byteOffset": 349544,
      "byteStride": 16,
      "name": "floatBufferViews",
      "target": 34962
    },
    {
      "buffer": 0,
      "byteLength": 896,
      "byteOffset": 471400,
      "name": "floatBufferViews"
    }
  ],
  "buffers": [
    {
      "byteLength": 472296,
      "uri": "scene.bin"
    }
  ],
  "extensionsUsed": [
    "KHR_materials_unlit"
  ],
  "images": [
    {
      "uri": "textures/Mumei_baseColor.png"
    }
  ],
  "materials": [
    {
      "extensions": {
        "KHR_materials_unlit": {}
      },
      "name": "Mumei",
      "pbrMetallicRoughness": {
        "baseColorTexture": {
          "index": 0
        },
        "metallicFactor": 0.0
      }
    }
  ],
  "meshes": [
    {
      "name": "mesh_0",
      "primitives": [
        {
          "attributes": {
            "JOINTS_0": 5,
            "NORMAL": 1,
            "POSITION": 0,
            "TEXCOORD_0": 2,
            "WEIGHTS_0": 6
          },
          "indices": 3,
          "material": 0,
          "mode": 4
        }
      ]
    }
  ],
  "nodes": [
    {
      "children": [
        1
      ],
      "matrix": [
        1.0,
        0.0,
        0.0,
        0.0,
        0.0,
        2.220446049250313e-16,
        -1.0,
        0.0,
        0.0,
        1.0,
        2.220446049250313e-16,
        0.0,
        0.0,
        0.0,
        0.0,
        1.0
      ],
      "name": "Sketchfab_model"
    },
    {
      "children": [
        2
      ],
      "name": "root"
    },
    {
      "children": [
        3
      ],
      "matrix": [
        1.0,
        0.0,
        0.0,
        0.0,
        0.0,
        2.220446049250313e-16,
        1.0,
        0.0,
        0.0,
        -1.0,
        2.220446049250313e-16,
        0.0,
        0.0,
        0.0,
        0.0,
        1.0
      ],
      "name": "GLTF_SceneRootNode"
    },
    {
      "children": [
        4
      ],
      "name": "Armature Mumei_14"
    },
    {
      "children": [
        5,
        7,
        6
      ],
      "name": "GLTF_created_0"
    },
    {
      "children": [
        8
      ],
      "name": "GLTF_created_0_rootJoint"
    },
    {
      "name": "Mumei_13"
    },
    {
      "mesh": 0,
      "name": "Object_7",
      "skin": 0
    },
    {
      "children": [
        9,
        13,
        14,
        17
      ],
      "name": "Chest_12",
      "rotation": [
        -2.9802322387695313e-08,
        1.1920926112907182e-07,
        4.235164736271502e-22,
        1.0
      ],
      "scale": [
        1.0,
        0.9999998807907104,
        0.9999998807907104
      ],
      "translation": [
        0.0,
        0.8912394642829895,
        0.0
      ]
    },
    {
      "children": [
        10,
        11,
        12
      ],
      "name": "Head_3",
      "rotation": [
        -3.552713678800501e-15,
        -1.1920927533992653e-07,
        0.0,
        1.0
      ],
      "scale": [
        1.0,
        0.9999999403953552,
        0.9999999403953552
      ],
      "translation": [
        0.0,
        0.3233909010887146,
        0.0
      ]
    },
    {
      "name": "Hair_0",
      "rotation": [
        0.5922482013702393,
        -0.057904910296201706,
        0.07820345461368561,
        0.7998583316802979
      ],
      "scale": [
        1.0,
        1.0,
        1.0000001192092896
      ],
      "translation": [
        -7.309488569973155e-09,
        0.815192699432373,
        -0.12587420642375946
      ]
    },
    {
      "name": "Feather.L_1",
      "rotation": [
        0.07716146111488342,
        0.07582155615091324,
        -0.1888861358165741,
        0.9760221838951111
      ],
      "scale": [
        0.9999999403953552,
        1.0,
        1.0
      ],
      "translation": [
        0.024705467745661736,
        0.7975292205810547,
        -0.15155185759067535
      ]
    },
    {
      "name": "Feather.R_2",
      "rotation": [
        0.07716146111488342,
        -0.07582155615091324,
        0.1888861358165741,
        0.9760221838951111
      ],
      "scale": [
        0.9999999403953552,
        1.0,
        1.0
      ],
      "translation": [
        -0.024705467745661736,
        0.7975292205810547,
        -0.15155185759067535
      ]
    },
    {
      "name": "Spine_4",
      "rotation": [
        1.0,
        -2.117582368135751e-22,
        7.549789415861596e-08,
        3.5527132552840273e-15
      ],
      "scale": [
        1.0,
        0.9999999403953552,
        0.9999999403953552
      ]
    },
    {
      "children": [
        15
      ],
      "name": "UpperArm.L_7",
      "rotation": [
        0.16786567866802216,
        -0.1678653210401535,
        -0.6868923902511597,
        0.6868924498558044
      ],
      "scale": [
        1.0,
        0.9999999403953552,
        1.0
      ],
      "translation": [
        0.4183623790740967,
        0.28924673795700073,
        0.11334280669689178
      ]
    },
    {
      "children": [
        16
      ],
      "name": "LowerArm.L_6",
      "rotation": [
        0.10188030451536179,
        1.908857967525268e-11,
        3.274725557389502e-08,
        0.9947967529296875
      ],
      "scale": [
        1.0,
        0.9999998211860657,
        1.0
      ],
      "translation": [
        4.025770294902031e-08,
        0.15781016647815704,
        -1.5497624517024633e-08
      ]
    },
    {
      "name": "Hand.L_5",
      "rotation": [
        0.19784806668758392,
        1.1198335592155217e-09,
        7.385629885447997e-08,
        0.9802327156066895
      ],
      "scale": [
        1.0,
        0.9999999403953552,
        1.0
      ],
      "translation": [
        1.9672965834161005e-07,
        0.07821498066186905,
        -4.0256214361988896e-08
      ]
    },
    {
      "children": [
        18
      ],
      "name": "UpperArm.R_11",
      "rotation": [
        0.16786551475524902,
        0.16786514222621918,
        0.6868924498558044,
        0.6868924498558044
      ],
      "scale": [
        1.0,
        0.9999998807907104,
        0.9999999403953552
      ],
      "translation": [
        -0.41836243867874146,
        0.2892466187477112,
        0.11334262788295746
      ]
    },
    {
      "children": [
        19,
        20
      ],
      "name": "LowerArm.R_10",
      "rotation": [
        0.10188037902116776,
        2.886173522398394e-10,
        -3.575205909100987e-08,
        0.9947967529296875
      ],
      "translation": [
        -4.301111644622324e-08,
        0.15781018137931824,
        -1.7689345099825005e-08
      ]
    },
    {
      "name": "Lantern_8",
      "rotation": [
        1.172992512010751e-07,
        2.1212967737938015e-07,
        0.7071068286895752,
        0.7071068286895752
      ],
      "translation": [
        -2.0280867829569615e-07,
        0.07821496576070786,
        -4.601815106752838e-08
      ]
    },
    {
      "name": "Hand.R_9",
      "rotation": [
        0.19784808158874512,
        8.154804617493093e-15,
        -7.94041881135854e-08,
        0.9802327156066895
      ],
      "translation": [
        -8.359939585034226e-08,
        0.07821499556303024,
        -5.7577771883643436e-08
      ]
    }
  ],
  "samplers": [
    {
      "magFilter": 9728,
      "minFilter": 9728,
      "wrapS": 10497,
      "wrapT": 10497
    }
  ],
  "scene": 0,
  "scenes": [
    {
      "name": "Sketchfab_Scene",
      "nodes": [
        0
      ]
    }
  ],
  "skins": [
    {
      "inverseBindMatrices": 4,
      "joints": [
        5,
        8,
        9,
        10,
        11,
        12,
        13,
        14,
        15,
        16,
        17,
        18,
        19,
        20
      ],
      "skeleton": 5
    }
  ],
  "textures": [
    {
      "sampler": 0,
      "source": 0
    }
  ]
}
